<?xml version="1.0" encoding="utf-8"?>
<!-- Generator: Adobe Illustrator 24.0.0, SVG Export Plug-In . SVG Version: 6.00 Build 0)  -->
<svg version="1.1" xmlns="http://www.w3.org/2000/svg" xmlns:xlink="http://www.w3.org/1999/xlink" x="0px" y="0px"
	 viewBox="0 0 881.351 65.52" enable-background="new 0 0 881.351 65.52" xml:space="preserve">
<g id="Layer_1" display="none">
	<g display="inline">
		<path d="M0,50V6.5h11.88c2.28,0,4.37,0.3,6.27,0.9c1.899,0.6,3.54,1.491,4.92,2.67c1.38,1.181,2.45,2.621,3.21,4.32
			c0.759,1.701,1.14,3.65,1.14,5.85c0,1.72-0.26,3.43-0.78,5.13c-0.521,1.701-1.36,3.22-2.52,4.56c-1.161,1.34-2.68,2.43-4.56,3.27
			c-1.88,0.84-4.161,1.26-6.84,1.26H6.6V50H0z M6.6,28.279h5.94c1.6,0,2.94-0.279,4.02-0.84c1.08-0.56,1.93-1.239,2.55-2.04
			c0.62-0.8,1.059-1.659,1.32-2.58c0.26-0.919,0.39-1.74,0.39-2.46c0-0.759-0.13-1.59-0.39-2.49c-0.261-0.9-0.71-1.74-1.35-2.52
			c-0.64-0.78-1.491-1.43-2.55-1.95c-1.061-0.519-2.37-0.78-3.93-0.78h-6V28.279z"/>
		<path d="M27.901,37.7c0-1.839,0.35-3.57,1.05-5.19c0.699-1.62,1.65-3.039,2.85-4.26c1.2-1.22,2.59-2.19,4.17-2.91
			c1.58-0.72,3.27-1.08,5.07-1.08c1.2,0,2.3,0.15,3.3,0.45c1,0.3,1.86,0.67,2.58,1.11c0.72,0.441,1.299,0.9,1.74,1.38
			c0.439,0.48,0.74,0.9,0.9,1.26l0.24-3.54h4.92V50h-5.16v-3.18c-0.201,0.321-0.521,0.701-0.96,1.14
			c-0.441,0.44-1.011,0.851-1.71,1.23c-0.7,0.381-1.53,0.71-2.49,0.99c-0.96,0.279-2.061,0.42-3.3,0.42
			c-1.92,0-3.69-0.351-5.31-1.05c-1.62-0.699-3.01-1.64-4.17-2.82c-1.161-1.179-2.07-2.55-2.73-4.11
			C28.231,41.06,27.901,39.42,27.901,37.7z M33.061,37.399c0,1.161,0.21,2.241,0.63,3.24c0.42,1,0.99,1.86,1.71,2.58
			c0.72,0.72,1.58,1.29,2.58,1.71c1,0.42,2.1,0.63,3.3,0.63c1.2,0,2.31-0.21,3.33-0.63c1.02-0.42,1.899-1,2.64-1.74
			c0.74-0.74,1.31-1.599,1.71-2.58c0.399-0.979,0.6-2.049,0.6-3.21c0-1.16-0.201-2.229-0.6-3.21c-0.4-0.979-0.97-1.83-1.71-2.55
			c-0.741-0.72-1.62-1.29-2.64-1.71c-1.02-0.42-2.13-0.63-3.33-0.63c-1.2,0-2.301,0.21-3.3,0.63c-1,0.42-1.86,0.99-2.58,1.71
			c-0.72,0.72-1.29,1.57-1.71,2.55C33.271,35.17,33.061,36.24,33.061,37.399z"/>
		<path d="M85.26,50.54h-4.32l-0.6-6.96c-0.92,2.04-2.21,3.72-3.87,5.04c-1.66,1.32-3.771,1.98-6.33,1.98
			c-2.56,0-4.59-0.69-6.09-2.07c-1.5-1.38-2.291-3.189-2.37-5.43v-18.18h5.1v15.9c0.08,1.241,0.53,2.301,1.35,3.18
			c0.819,0.88,2.09,1.38,3.81,1.5c1.2,0,2.3-0.21,3.3-0.63c1-0.42,1.86-0.99,2.58-1.71c0.72-0.72,1.28-1.58,1.68-2.58
			c0.399-1,0.6-2.1,0.6-3.3v-12.36h5.16V50.54z"/>
		<path d="M97.62,50h-5.1V3.379h5.1V50z"/>
		<path d="M103.139,37.7c0-1.839,0.35-3.57,1.05-5.19c0.699-1.62,1.65-3.039,2.85-4.26c1.2-1.22,2.59-2.19,4.17-2.91
			c1.58-0.72,3.27-1.08,5.07-1.08c1.2,0,2.3,0.15,3.3,0.45c1,0.3,1.86,0.67,2.58,1.11c0.72,0.441,1.299,0.9,1.74,1.38
			c0.439,0.48,0.74,0.9,0.9,1.26l0.24-3.54h4.92V50h-5.16v-3.18c-0.201,0.321-0.521,0.701-0.96,1.14
			c-0.441,0.44-1.011,0.851-1.71,1.23c-0.7,0.381-1.53,0.71-2.49,0.99c-0.96,0.279-2.061,0.42-3.3,0.42
			c-1.92,0-3.69-0.351-5.31-1.05c-1.62-0.699-3.01-1.64-4.17-2.82c-1.161-1.179-2.07-2.55-2.73-4.11
			C103.469,41.06,103.139,39.42,103.139,37.7z M108.299,37.399c0,1.161,0.21,2.241,0.63,3.24c0.42,1,0.99,1.86,1.71,2.58
			c0.72,0.72,1.58,1.29,2.58,1.71c1,0.42,2.1,0.63,3.3,0.63c1.2,0,2.31-0.21,3.33-0.63c1.02-0.42,1.899-1,2.64-1.74
			c0.74-0.74,1.31-1.599,1.71-2.58c0.399-0.979,0.6-2.049,0.6-3.21c0-1.16-0.201-2.229-0.6-3.21c-0.4-0.979-0.97-1.83-1.71-2.55
			c-0.741-0.72-1.62-1.29-2.64-1.71c-1.02-0.42-2.13-0.63-3.33-0.63c-1.2,0-2.301,0.21-3.3,0.63c-1,0.42-1.86,0.99-2.58,1.71
			c-0.72,0.72-1.29,1.57-1.71,2.55C108.509,35.17,108.299,36.24,108.299,37.399z"/>
		<path d="M184.979,46.879c-0.48,0.36-1.15,0.75-2.01,1.17c-0.861,0.42-1.871,0.81-3.03,1.17c-1.161,0.36-2.451,0.66-3.87,0.9
			c-1.42,0.24-2.931,0.36-4.53,0.36c-3.4,0-6.449-0.59-9.15-1.77c-2.7-1.179-4.99-2.77-6.87-4.77c-1.881-2-3.321-4.32-4.32-6.96
			c-1-2.64-1.5-5.439-1.5-8.4c0-3.279,0.59-6.3,1.77-9.06c1.18-2.76,2.79-5.139,4.83-7.14c2.04-2,4.43-3.56,7.17-4.68
			c2.739-1.12,5.649-1.68,8.729-1.68c1.16,0,2.34,0.081,3.54,0.24c1.2,0.161,2.33,0.381,3.39,0.66c1.06,0.28,2,0.61,2.82,0.99
			c0.819,0.38,1.449,0.771,1.891,1.17c-0.321,0.48-0.57,0.88-0.75,1.2c-0.181,0.321-0.371,0.651-0.57,0.99
			c-0.201,0.34-0.42,0.73-0.66,1.17c-0.24,0.441-0.561,1.02-0.96,1.74c-0.521-0.36-1.131-0.66-1.83-0.9
			c-0.7-0.24-1.431-0.439-2.19-0.6c-0.76-0.16-1.529-0.28-2.31-0.36c-0.78-0.08-1.49-0.12-2.13-0.12c-2.32,0-4.47,0.43-6.45,1.29
			c-1.979,0.86-3.69,2.02-5.13,3.48c-1.44,1.46-2.571,3.15-3.39,5.07c-0.82,1.92-1.23,3.92-1.23,6c0,2.04,0.39,4,1.17,5.88
			c0.78,1.881,1.86,3.561,3.24,5.04c1.38,1.48,3.039,2.661,4.979,3.54c1.94,0.88,4.07,1.32,6.391,1.32c1.239,0,2.439-0.12,3.6-0.36
			c1.16-0.24,2.21-0.52,3.15-0.84c0.939-0.32,1.719-0.64,2.34-0.96c0.62-0.32,0.99-0.56,1.11-0.72L184.979,46.879z"/>
		<path d="M186.839,37.7c0-1.839,0.35-3.57,1.05-5.19c0.699-1.62,1.649-3.039,2.85-4.26c1.2-1.22,2.59-2.19,4.17-2.91
			c1.58-0.72,3.271-1.08,5.07-1.08c1.2,0,2.3,0.15,3.3,0.45s1.86,0.67,2.58,1.11c0.72,0.441,1.3,0.9,1.74,1.38
			c0.439,0.48,0.739,0.9,0.899,1.26l0.24-3.54h4.92V50h-5.16v-3.18c-0.2,0.321-0.52,0.701-0.96,1.14
			c-0.44,0.44-1.01,0.851-1.71,1.23c-0.7,0.381-1.529,0.71-2.489,0.99c-0.96,0.279-2.061,0.42-3.301,0.42
			c-1.92,0-3.689-0.351-5.31-1.05c-1.62-0.699-3.011-1.64-4.17-2.82c-1.161-1.179-2.07-2.55-2.73-4.11
			C187.169,41.06,186.839,39.42,186.839,37.7z M191.998,37.399c0,1.161,0.211,2.241,0.631,3.24c0.42,1,0.989,1.86,1.71,2.58
			c0.72,0.72,1.579,1.29,2.58,1.71c0.999,0.42,2.1,0.63,3.3,0.63s2.31-0.21,3.33-0.63c1.02-0.42,1.899-1,2.64-1.74
			c0.739-0.74,1.31-1.599,1.71-2.58c0.399-0.979,0.6-2.049,0.6-3.21c0-1.16-0.2-2.229-0.6-3.21c-0.4-0.979-0.971-1.83-1.71-2.55
			c-0.74-0.72-1.62-1.29-2.64-1.71c-1.021-0.42-2.13-0.63-3.33-0.63s-2.301,0.21-3.3,0.63c-1.001,0.42-1.86,0.99-2.58,1.71
			c-0.721,0.72-1.29,1.57-1.71,2.55C192.209,35.17,191.998,36.24,191.998,37.399z M197.759,20.839c0.919-1.32,1.839-2.66,2.76-4.02
			c0.92-1.359,1.839-2.7,2.76-4.02h5.521l-7.141,8.04H197.759z"/>
		<path d="M237.658,43.819c0.56,0.681,1.089,1.331,1.59,1.95c0.499,0.621,1.01,1.271,1.529,1.95c-1.12,0.88-2.38,1.581-3.779,2.1
			c-1.4,0.52-2.921,0.78-4.561,0.78c-1.84,0-3.569-0.351-5.189-1.05c-1.62-0.699-3.03-1.65-4.23-2.85c-1.2-1.2-2.15-2.6-2.85-4.2
			c-0.7-1.6-1.05-3.3-1.05-5.1c0-1.8,0.35-3.5,1.05-5.1c0.699-1.599,1.649-2.989,2.85-4.17c1.2-1.179,2.61-2.12,4.23-2.82
			c1.62-0.699,3.35-1.05,5.189-1.05c1.681,0,3.23,0.261,4.65,0.78c1.419,0.521,2.709,1.221,3.87,2.1l-3.3,3.9
			c-0.681-0.56-1.461-0.99-2.341-1.29s-1.84-0.45-2.88-0.45c-1.199,0-2.301,0.21-3.3,0.63c-1,0.42-1.87,0.99-2.61,1.71
			c-0.74,0.72-1.311,1.57-1.71,2.55c-0.399,0.98-0.6,2.05-0.6,3.21c0,1.161,0.2,2.23,0.6,3.21c0.399,0.981,0.97,1.84,1.71,2.58
			c0.74,0.741,1.61,1.32,2.61,1.74c0.999,0.42,2.101,0.63,3.3,0.63c1.04,0,2-0.15,2.88-0.45
			C236.197,44.81,236.978,44.38,237.658,43.819z"/>
		<path d="M266.157,47.06c-1.2,1.08-2.66,1.94-4.38,2.58c-1.721,0.639-3.479,0.96-5.28,0.96c-1.84,0-3.569-0.351-5.189-1.05
			c-1.62-0.699-3.03-1.64-4.23-2.82c-1.2-1.179-2.15-2.57-2.85-4.17c-0.7-1.6-1.05-3.3-1.05-5.1s0.35-3.5,1.05-5.1
			c0.699-1.599,1.649-3,2.85-4.2c1.2-1.2,2.59-2.15,4.17-2.85c1.58-0.699,3.271-1.05,5.07-1.05c2.84,0,5.31,0.851,7.41,2.55
			c2.1,1.701,3.609,3.93,4.53,6.69c-1.241,0.44-2.661,0.98-4.261,1.62c-1.6,0.64-3.261,1.311-4.979,2.01
			c-1.721,0.7-3.44,1.391-5.16,2.07c-1.721,0.681-3.32,1.3-4.8,1.86c0.68,1.36,1.67,2.451,2.97,3.27c1.3,0.82,2.75,1.23,4.35,1.23
			c1.08,0,2.17-0.2,3.271-0.6c1.1-0.399,1.989-0.939,2.67-1.62L266.157,47.06z M261.837,32.299c-0.479-0.999-1.24-1.749-2.279-2.25
			c-1.041-0.5-2.101-0.75-3.181-0.75c-1.16,0-2.229,0.221-3.21,0.66c-0.98,0.44-1.83,1.03-2.55,1.77
			c-0.72,0.741-1.29,1.59-1.71,2.55c-0.42,0.96-0.63,1.941-0.63,2.94c0,0.2,0.01,0.34,0.03,0.42c0.02,0.081,0.029,0.141,0.029,0.18
			c1.04-0.399,2.17-0.849,3.391-1.35c1.22-0.5,2.43-1,3.63-1.5c1.2-0.5,2.359-0.98,3.479-1.44
			C259.957,33.07,260.957,32.66,261.837,32.299z"/>
		<path d="M286.497,30.859c-1.121,0-2.201,0.15-3.24,0.45c-1.041,0.3-1.971,0.75-2.79,1.35c-0.82,0.6-1.47,1.35-1.95,2.25
			c-0.479,0.9-0.72,1.93-0.72,3.09v12h-5.101v-25.08h4.5c0.08,1.24,0.15,2.37,0.21,3.39c0.061,1.02,0.13,2.031,0.21,3.03
			c0.52-1.08,1.2-2.06,2.04-2.94c0.841-0.879,1.74-1.62,2.7-2.22c0.96-0.6,1.899-1.07,2.82-1.41c0.92-0.339,1.74-0.51,2.46-0.51
			L286.497,30.859z"/>
		<path d="M312.116,47.06c-1.2,1.08-2.66,1.94-4.38,2.58c-1.721,0.639-3.479,0.96-5.28,0.96c-1.84,0-3.569-0.351-5.189-1.05
			c-1.62-0.699-3.03-1.64-4.23-2.82c-1.2-1.179-2.15-2.57-2.85-4.17c-0.7-1.6-1.05-3.3-1.05-5.1s0.35-3.5,1.05-5.1
			c0.699-1.599,1.649-3,2.85-4.2c1.2-1.2,2.59-2.15,4.17-2.85c1.58-0.699,3.271-1.05,5.07-1.05c2.84,0,5.31,0.851,7.41,2.55
			c2.1,1.701,3.609,3.93,4.53,6.69c-1.241,0.44-2.661,0.98-4.261,1.62c-1.6,0.64-3.261,1.311-4.979,2.01
			c-1.721,0.7-3.44,1.391-5.16,2.07c-1.721,0.681-3.32,1.3-4.8,1.86c0.68,1.36,1.67,2.451,2.97,3.27c1.3,0.82,2.75,1.23,4.35,1.23
			c1.08,0,2.17-0.2,3.271-0.6c1.1-0.399,1.989-0.939,2.67-1.62L312.116,47.06z M307.796,32.299c-0.479-0.999-1.24-1.749-2.279-2.25
			c-1.041-0.5-2.101-0.75-3.181-0.75c-1.16,0-2.229,0.221-3.21,0.66c-0.98,0.44-1.83,1.03-2.55,1.77
			c-0.72,0.741-1.29,1.59-1.71,2.55c-0.42,0.96-0.63,1.941-0.63,2.94c0,0.2,0.01,0.34,0.03,0.42c0.02,0.081,0.029,0.141,0.029,0.18
			c1.04-0.399,2.17-0.849,3.391-1.35c1.22-0.5,2.43-1,3.63-1.5c1.2-0.5,2.359-0.98,3.479-1.44
			C305.916,33.07,306.916,32.66,307.796,32.299z"/>
		<path d="M332.637,27.14l-2.7,3.6c-0.04-0.04-0.18-0.14-0.42-0.3c-0.24-0.159-0.55-0.32-0.93-0.48
			c-0.381-0.159-0.82-0.31-1.32-0.45c-0.501-0.14-1.011-0.21-1.53-0.21c-0.681,0-1.35,0.161-2.01,0.48
			c-0.66,0.321-0.99,0.921-0.99,1.8c0,0.76,0.271,1.38,0.811,1.86s1.209,0.91,2.01,1.29c0.8,0.381,1.67,0.771,2.61,1.17
			c0.939,0.4,1.809,0.891,2.609,1.47c0.8,0.58,1.471,1.3,2.011,2.16c0.539,0.861,0.81,1.95,0.81,3.27c0,2.241-0.771,4.09-2.31,5.55
			c-1.541,1.46-3.651,2.19-6.33,2.19c-1.561,0-3.091-0.27-4.591-0.81s-2.71-1.33-3.63-2.37c0.279-0.279,0.59-0.639,0.931-1.08
			c0.339-0.439,0.68-0.859,1.02-1.26c0.34-0.399,0.62-0.729,0.84-0.99c0.22-0.259,0.35-0.39,0.391-0.39
			c0,0.04,0.149,0.16,0.449,0.36c0.301,0.201,0.69,0.411,1.171,0.63c0.479,0.22,1.02,0.42,1.619,0.6c0.601,0.18,1.2,0.27,1.801,0.27
			c0.96,0,1.779-0.24,2.46-0.72c0.68-0.48,1.02-1.119,1.02-1.92c0-0.72-0.27-1.29-0.81-1.71s-1.211-0.81-2.011-1.17
			s-1.68-0.729-2.64-1.11c-0.96-0.38-1.84-0.87-2.64-1.47c-0.801-0.6-1.471-1.35-2.011-2.25c-0.539-0.9-0.81-2.07-0.81-3.51
			c0-1.359,0.249-2.5,0.75-3.42c0.5-0.92,1.14-1.67,1.92-2.25c0.78-0.58,1.65-1,2.61-1.26c0.96-0.26,1.88-0.39,2.76-0.39
			c1.16,0,2.4,0.24,3.72,0.72C330.597,25.52,331.716,26.22,332.637,27.14z"/>
	</g>
</g>
<g id="Layer_2">
	<g>
		<path fill="#FFFFFF" d="M12.02,8.16h9.96c3.879,0,7.17,0.57,9.87,1.71c2.7,1.14,4.88,2.62,6.54,4.44
			c1.659,1.821,2.859,3.891,3.6,6.21c0.74,2.32,1.11,4.641,1.11,6.96c0,3.561-0.681,6.791-2.04,9.69c-1.36,2.901-3.16,5.37-5.4,7.41
			c-2.241,2.04-4.821,3.621-7.74,4.74C25,50.44,21.959,51,18.8,51H6.74L12.02,8.16z M18.86,47.1c2.72,0,5.299-0.45,7.74-1.35
			c2.439-0.9,4.58-2.19,6.42-3.87c1.839-1.68,3.3-3.72,4.38-6.12c1.08-2.4,1.62-5.1,1.62-8.1c0-2.2-0.37-4.25-1.11-6.15
			c-0.741-1.899-1.811-3.549-3.21-4.95c-1.401-1.4-3.101-2.49-5.1-3.27c-2-0.78-4.281-1.17-6.84-1.17h-7.08L11.36,47.1H18.86z"/>
		<path fill="#FFFFFF" d="M66.681,48.12c-1.281,1.041-2.74,1.86-4.38,2.46c-1.641,0.6-3.301,0.9-4.98,0.9
			c-1.641,0-3.141-0.291-4.5-0.871c-1.36-0.579-2.541-1.38-3.54-2.4c-1-1.02-1.78-2.209-2.34-3.57c-0.561-1.359-0.84-2.82-0.84-4.38
			c0-1.879,0.39-3.66,1.17-5.34c0.78-1.68,1.83-3.15,3.15-4.41c1.32-1.26,2.83-2.259,4.53-3c1.7-0.739,3.47-1.11,5.311-1.11
			c2.64,0,4.839,0.791,6.6,2.37c1.76,1.581,2.94,3.63,3.54,6.15c-1.4,0.521-2.97,1.11-4.71,1.77s-3.53,1.341-5.37,2.04
			c-1.84,0.7-3.66,1.401-5.46,2.1c-1.8,0.7-3.48,1.35-5.04,1.95c0.52,1.641,1.47,2.961,2.851,3.96c1.38,1,3.029,1.5,4.949,1.5
			c1.28,0,2.521-0.22,3.721-0.66c1.199-0.44,2.259-1.04,3.18-1.8L66.681,48.12z M66.381,34.08c-0.521-1.359-1.351-2.43-2.49-3.21
			c-1.141-0.78-2.471-1.17-3.99-1.17c-1.4,0-2.729,0.27-3.99,0.81c-1.26,0.54-2.37,1.281-3.33,2.22c-0.959,0.94-1.72,2.01-2.28,3.21
			c-0.561,1.2-0.84,2.46-0.84,3.78v0.84c1.32-0.52,2.709-1.06,4.17-1.62c1.459-0.56,2.93-1.129,4.409-1.71
			c1.479-0.58,2.94-1.14,4.381-1.68C63.86,35.009,65.181,34.52,66.381,34.08z"/>
		<path fill="#FFFFFF" d="M81.8,52.439c-1.72-4.279-3.239-8.52-4.56-12.719c-1.32-4.2-2.801-8.439-4.44-12.72h3.54
			c0.92,2.4,1.681,4.51,2.28,6.33c0.601,1.82,1.13,3.46,1.59,4.92c0.46,1.46,0.86,2.82,1.2,4.08c0.34,1.26,0.729,2.53,1.17,3.81
			c0.72-1.28,1.399-2.55,2.04-3.81c0.64-1.26,1.359-2.62,2.16-4.08c0.8-1.459,1.729-3.1,2.79-4.92c1.06-1.82,2.35-3.93,3.87-6.33
			h3.54c-2.641,4.281-5.171,8.52-7.59,12.72C86.97,43.919,84.44,48.16,81.8,52.439z"/>
		<path fill="#FFFFFF" d="M118.221,48.12c-1.281,1.041-2.74,1.86-4.38,2.46c-1.641,0.6-3.301,0.9-4.98,0.9
			c-1.641,0-3.141-0.291-4.5-0.871c-1.36-0.579-2.54-1.38-3.54-2.4S99.04,46,98.48,44.64c-0.561-1.359-0.84-2.82-0.84-4.38
			c0-1.879,0.39-3.66,1.17-5.34c0.78-1.68,1.83-3.15,3.15-4.41c1.319-1.26,2.829-2.259,4.529-3c1.7-0.739,3.47-1.11,5.311-1.11
			c2.64,0,4.839,0.791,6.6,2.37c1.76,1.581,2.94,3.63,3.54,6.15c-1.4,0.521-2.97,1.11-4.71,1.77s-3.53,1.341-5.37,2.04
			c-1.84,0.7-3.66,1.401-5.46,2.1c-1.8,0.7-3.479,1.35-5.04,1.95c0.52,1.641,1.47,2.961,2.851,3.96c1.38,1,3.029,1.5,4.949,1.5
			c1.28,0,2.521-0.22,3.721-0.66c1.199-0.44,2.259-1.04,3.18-1.8L118.221,48.12z M117.921,34.08c-0.521-1.359-1.351-2.43-2.49-3.21
			c-1.141-0.78-2.471-1.17-3.99-1.17c-1.4,0-2.729,0.27-3.99,0.81c-1.26,0.54-2.37,1.281-3.33,2.22c-0.96,0.94-1.72,2.01-2.279,3.21
			c-0.561,1.2-0.84,2.46-0.84,3.78v0.84c1.319-0.52,2.709-1.06,4.17-1.62c1.459-0.56,2.93-1.129,4.409-1.71
			c1.479-0.58,2.94-1.14,4.381-1.68C115.4,35.009,116.721,34.52,117.921,34.08z"/>
		<path fill="#FFFFFF" d="M128.66,51h-3.301L131,5.04h3.3L128.66,51z"/>
		<path fill="#FFFFFF" d="M136.52,39c0.2-1.719,0.721-3.35,1.561-4.89c0.84-1.539,1.899-2.88,3.18-4.02
			c1.279-1.14,2.73-2.04,4.35-2.7c1.62-0.66,3.31-0.99,5.07-0.99c1.64,0,3.14,0.291,4.5,0.87c1.359,0.58,2.529,1.38,3.51,2.4
			s1.74,2.22,2.28,3.6s0.811,2.85,0.811,4.41c0,1.88-0.381,3.66-1.141,5.34s-1.79,3.15-3.09,4.41c-1.3,1.26-2.811,2.25-4.53,2.97
			c-1.72,0.72-3.54,1.081-5.46,1.081c-1.761,0-3.359-0.311-4.8-0.931c-1.439-0.62-2.66-1.489-3.66-2.61
			c-1-1.119-1.74-2.439-2.22-3.96C136.399,42.46,136.28,40.799,136.52,39z M139.82,39c-0.161,1.281-0.07,2.48,0.27,3.6
			c0.34,1.12,0.87,2.1,1.59,2.94s1.62,1.5,2.7,1.98s2.26,0.72,3.54,0.72c1.399,0,2.729-0.27,3.99-0.81
			c1.26-0.54,2.37-1.27,3.33-2.19c0.96-0.92,1.729-2,2.31-3.24c0.579-1.239,0.87-2.56,0.87-3.96c0-1.16-0.21-2.25-0.63-3.27
			s-0.99-1.899-1.71-2.64c-0.721-0.74-1.581-1.329-2.58-1.77c-1-0.439-2.101-0.66-3.3-0.66c-1.281,0-2.521,0.24-3.721,0.72
			c-1.199,0.48-2.26,1.14-3.18,1.98c-0.921,0.84-1.69,1.83-2.31,2.97C140.369,36.509,139.979,37.72,139.82,39z"/>
		<path fill="#FFFFFF" d="M193.399,37.5c0,1.96-0.371,3.791-1.11,5.49c-0.74,1.7-1.75,3.18-3.03,4.44
			c-1.28,1.26-2.771,2.25-4.47,2.97c-1.7,0.72-3.53,1.081-5.49,1.081c-2.24,0-4.16-0.52-5.76-1.561
			c-1.601-1.04-2.66-2.319-3.18-3.84c-0.081,0.4-0.12,0.79-0.12,1.17c0,0.381-0.04,0.791-0.12,1.23l-1.74,14.04h-3.3l4.38-35.52
			h3.18c0,0.12-0.021,0.381-0.06,0.78c-0.04,0.4-0.09,0.851-0.15,1.35c-0.06,0.501-0.12,1.011-0.18,1.53
			c-0.06,0.52-0.11,0.98-0.15,1.38c0.92-1.479,2.3-2.78,4.141-3.9c1.839-1.12,3.92-1.68,6.24-1.68c1.64,0,3.129,0.27,4.47,0.81
			c1.34,0.54,2.49,1.29,3.45,2.25s1.699,2.121,2.22,3.48C193.139,34.36,193.399,35.86,193.399,37.5z M189.799,37.919
			c0-2.359-0.72-4.32-2.16-5.88c-1.439-1.56-3.4-2.34-5.88-2.34c-1.439,0-2.8,0.26-4.08,0.78c-1.28,0.521-2.399,1.24-3.359,2.16
			c-0.96,0.92-1.721,2-2.28,3.24c-0.561,1.24-0.84,2.58-0.84,4.02c0,1.2,0.199,2.301,0.6,3.3c0.399,1,0.97,1.88,1.71,2.64
			c0.74,0.76,1.62,1.35,2.641,1.77c1.02,0.42,2.13,0.63,3.33,0.63c1.439,0,2.79-0.27,4.05-0.81s2.359-1.28,3.3-2.22
			c0.939-0.939,1.67-2.03,2.19-3.27C189.538,40.7,189.799,39.359,189.799,37.919z"/>
		<path fill="#FFFFFF" d="M218.358,48.12c-1.281,1.041-2.74,1.86-4.38,2.46c-1.641,0.6-3.301,0.9-4.98,0.9
			c-1.641,0-3.141-0.291-4.5-0.871c-1.36-0.579-2.54-1.38-3.54-2.4s-1.78-2.209-2.34-3.57c-0.561-1.359-0.84-2.82-0.84-4.38
			c0-1.879,0.39-3.66,1.17-5.34c0.78-1.68,1.83-3.15,3.15-4.41c1.319-1.26,2.829-2.259,4.529-3c1.7-0.739,3.47-1.11,5.311-1.11
			c2.64,0,4.839,0.791,6.6,2.37c1.76,1.581,2.94,3.63,3.54,6.15c-1.4,0.521-2.97,1.11-4.71,1.77s-3.53,1.341-5.37,2.04
			c-1.84,0.7-3.66,1.401-5.46,2.1c-1.8,0.7-3.479,1.35-5.04,1.95c0.52,1.641,1.47,2.961,2.851,3.96c1.38,1,3.029,1.5,4.949,1.5
			c1.28,0,2.521-0.22,3.721-0.66c1.199-0.44,2.259-1.04,3.18-1.8L218.358,48.12z M218.059,34.08c-0.521-1.359-1.351-2.43-2.49-3.21
			c-1.141-0.78-2.471-1.17-3.99-1.17c-1.4,0-2.729,0.27-3.99,0.81c-1.26,0.54-2.37,1.281-3.33,2.22c-0.96,0.94-1.72,2.01-2.279,3.21
			c-0.561,1.2-0.84,2.46-0.84,3.78v0.84c1.319-0.52,2.709-1.06,4.17-1.62c1.459-0.56,2.93-1.129,4.409-1.71
			c1.479-0.58,2.94-1.14,4.381-1.68C215.538,35.009,216.858,34.52,218.059,34.08z"/>
		<path fill="#FFFFFF" d="M240.318,30.6c-1.2,0-2.37,0.19-3.51,0.57c-1.141,0.381-2.171,0.91-3.09,1.59
			c-0.921,0.681-1.69,1.511-2.311,2.49c-0.62,0.98-1.011,2.07-1.17,3.27L228.679,51h-3.3l2.939-24h2.82l-0.48,6.18
			c0.601-1.04,1.34-1.97,2.221-2.79c0.879-0.819,1.809-1.52,2.789-2.1c0.98-0.58,1.97-1.029,2.971-1.35
			c0.999-0.32,1.939-0.48,2.819-0.48L240.318,30.6z"/>
		<path fill="#FFFFFF" d="M257.598,40.319l0.421-3.42h11.159l-0.42,3.42H257.598z"/>
		<path fill="#FFFFFF" d="M297.438,8.16h4.14L296.297,51h-4.14L297.438,8.16z"/>
		<path fill="#FFFFFF" d="M308.717,27h2.82c0,0.36-0.021,0.831-0.061,1.41c-0.04,0.58-0.09,1.18-0.149,1.8
			c-0.061,0.621-0.111,1.2-0.15,1.74c-0.04,0.54-0.08,0.95-0.12,1.23c1.16-2,2.619-3.609,4.38-4.83c1.76-1.22,3.841-1.85,6.24-1.89
			c2.24,0,3.97,0.591,5.19,1.77c1.22,1.18,1.83,2.73,1.83,4.65c1.159-1.92,2.6-3.47,4.319-4.65c1.72-1.179,3.76-1.77,6.12-1.77
			c2.4,0,4.21,0.66,5.43,1.98s1.73,3.06,1.53,5.22l-2.1,17.34h-3.3l1.979-16.2c0.12-1.359-0.21-2.52-0.99-3.48
			c-0.779-0.96-2.05-1.479-3.81-1.56c-1.24,0-2.41,0.21-3.51,0.63c-1.101,0.42-2.091,1-2.971,1.74c-0.88,0.741-1.61,1.62-2.189,2.64
			c-0.58,1.02-0.951,2.13-1.11,3.33l-1.56,12.9h-3.3l1.979-16.2c0.12-1.359-0.21-2.52-0.99-3.48c-0.779-0.96-2.03-1.479-3.75-1.56
			c-1.28,0-2.48,0.21-3.6,0.63c-1.12,0.42-2.121,1.01-3,1.77c-0.881,0.76-1.601,1.66-2.16,2.7c-0.561,1.041-0.921,2.181-1.08,3.42
			L309.077,51h-3.3L308.717,27z"/>
		<path fill="#FFFFFF" d="M351.438,40.379c0-1.879,0.39-3.669,1.17-5.37c0.78-1.699,1.83-3.18,3.15-4.44
			c1.319-1.26,2.829-2.259,4.529-3c1.7-0.74,3.47-1.11,5.311-1.11c1.2,0,2.3,0.16,3.3,0.48c0.999,0.321,1.88,0.75,2.64,1.29
			s1.38,1.14,1.86,1.8c0.479,0.66,0.819,1.311,1.02,1.95l0.841-4.98h3.06l-2.94,24h-3.3l0.3-2.46c0.08-0.44,0.14-0.86,0.181-1.26
			c0.039-0.399,0.1-0.78,0.18-1.14c-0.36,0.681-0.86,1.33-1.5,1.95c-0.641,0.621-1.4,1.191-2.28,1.71
			c-0.88,0.521-1.859,0.93-2.939,1.229c-1.08,0.301-2.241,0.451-3.48,0.451c-1.68,0-3.2-0.291-4.56-0.871
			c-1.36-0.579-2.521-1.37-3.48-2.37c-0.96-1-1.71-2.18-2.25-3.54C351.707,43.34,351.438,41.9,351.438,40.379z M354.737,39.899
			c0,1.2,0.2,2.301,0.6,3.3c0.399,1,0.97,1.88,1.711,2.64c0.739,0.76,1.619,1.35,2.64,1.77c1.02,0.42,2.149,0.63,3.39,0.63
			c1.44,0,2.8-0.27,4.08-0.81s2.4-1.27,3.36-2.19c0.96-0.92,1.719-2.01,2.28-3.27c0.56-1.26,0.84-2.589,0.84-3.99
			c0-1.16-0.201-2.25-0.601-3.27c-0.4-1.02-0.96-1.899-1.68-2.64c-0.72-0.74-1.59-1.32-2.61-1.74c-1.02-0.42-2.15-0.63-3.39-0.63
			c-1.44,0-2.801,0.26-4.08,0.78c-1.28,0.521-2.4,1.24-3.36,2.16c-0.96,0.92-1.73,2-2.31,3.24
			C355.027,37.12,354.737,38.459,354.737,39.899z"/>
		<path fill="#FFFFFF" d="M383.116,40.379c0-1.959,0.38-3.78,1.141-5.46c0.759-1.68,1.779-3.15,3.06-4.41
			c1.28-1.26,2.76-2.25,4.44-2.97c1.68-0.72,3.439-1.08,5.279-1.08c1.32,0,2.5,0.18,3.54,0.54s1.94,0.81,2.7,1.35
			s1.38,1.13,1.86,1.77c0.479,0.64,0.8,1.26,0.96,1.86c0.079-0.8,0.21-1.62,0.39-2.46c0.181-0.84,0.33-1.68,0.45-2.52h3.06
			l-2.88,23.58c-0.2,1.719-0.65,3.309-1.35,4.77c-0.7,1.46-1.641,2.721-2.82,3.78s-2.609,1.89-4.29,2.49
			c-1.68,0.601-3.6,0.899-5.76,0.899c-2.28,0-4.21-0.42-5.79-1.26s-3.15-2.08-4.71-3.72l2.4-2.28c1.399,1.52,2.769,2.58,4.109,3.18
			c1.34,0.601,2.77,0.9,4.29,0.9c3.36,0,5.859-0.79,7.5-2.369c1.64-1.582,2.641-3.651,3-6.211c0.08-0.319,0.13-0.6,0.15-0.84
			c0.02-0.24,0.09-0.699,0.21-1.38c0-0.12,0.03-0.31,0.09-0.57c0.06-0.26,0.109-0.54,0.15-0.84c0.039-0.3,0.09-0.579,0.149-0.84
			c0.061-0.26,0.09-0.429,0.09-0.51c-0.92,1.521-2.29,2.85-4.109,3.99c-1.821,1.14-3.951,1.71-6.391,1.71
			c-1.641,0-3.13-0.281-4.47-0.84c-1.341-0.56-2.49-1.34-3.45-2.34c-0.96-0.999-1.7-2.18-2.22-3.54
			C383.376,43.4,383.116,41.939,383.116,40.379z M386.417,39.959c0,1.161,0.199,2.25,0.6,3.27c0.399,1.02,0.97,1.9,1.71,2.64
			c0.739,0.741,1.62,1.32,2.64,1.74c1.021,0.42,2.15,0.63,3.391,0.63c1.439,0,2.799-0.27,4.08-0.81
			c1.279-0.54,2.399-1.27,3.359-2.19c0.96-0.92,1.72-2,2.28-3.24c0.56-1.239,0.84-2.58,0.84-4.02c0-1.16-0.2-2.25-0.6-3.27
			c-0.4-1.02-0.971-1.899-1.71-2.64c-0.741-0.74-1.62-1.32-2.641-1.74c-1.02-0.42-2.13-0.63-3.33-0.63
			c-1.439,0-2.811,0.26-4.109,0.78c-1.301,0.521-2.431,1.25-3.391,2.19c-0.96,0.94-1.72,2.031-2.279,3.27
			C386.696,37.18,386.417,38.52,386.417,39.959z"/>
		<path fill="#FFFFFF" d="M435.317,48.12c-1.281,1.041-2.74,1.86-4.38,2.46c-1.641,0.6-3.301,0.9-4.98,0.9
			c-1.641,0-3.141-0.291-4.5-0.871c-1.36-0.579-2.54-1.38-3.54-2.4s-1.78-2.209-2.34-3.57c-0.561-1.359-0.84-2.82-0.84-4.38
			c0-1.879,0.39-3.66,1.17-5.34c0.78-1.68,1.83-3.15,3.15-4.41c1.319-1.26,2.829-2.259,4.529-3c1.7-0.739,3.47-1.11,5.311-1.11
			c2.64,0,4.839,0.791,6.6,2.37c1.76,1.581,2.94,3.63,3.54,6.15c-1.4,0.521-2.97,1.11-4.71,1.77s-3.53,1.341-5.37,2.04
			c-1.84,0.7-3.66,1.401-5.46,2.1c-1.8,0.7-3.479,1.35-5.04,1.95c0.52,1.641,1.47,2.961,2.851,3.96c1.38,1,3.029,1.5,4.949,1.5
			c1.28,0,2.521-0.22,3.721-0.66c1.199-0.44,2.259-1.04,3.18-1.8L435.317,48.12z M435.018,34.08c-0.521-1.359-1.351-2.43-2.49-3.21
			c-1.141-0.78-2.471-1.17-3.99-1.17c-1.4,0-2.729,0.27-3.99,0.81c-1.26,0.54-2.37,1.281-3.33,2.22c-0.96,0.94-1.72,2.01-2.279,3.21
			c-0.561,1.2-0.84,2.46-0.84,3.78v0.84c1.319-0.52,2.709-1.06,4.17-1.62c1.459-0.56,2.93-1.129,4.409-1.71
			c1.479-0.58,2.94-1.14,4.381-1.68C432.497,35.009,433.817,34.52,435.018,34.08z"/>
		<path fill="#FFFFFF" d="M489.855,51h-3.96c-0.041,0-0.37-0.45-0.99-1.35c-0.621-0.9-1.431-2.089-2.43-3.57
			c-1.401,1.6-3.24,2.9-5.521,3.9c-2.28,1-4.74,1.5-7.38,1.5c-1.881,0-3.591-0.281-5.13-0.84c-1.54-0.56-2.85-1.33-3.93-2.31
			c-1.08-0.98-1.92-2.15-2.521-3.51c-0.6-1.359-0.899-2.839-0.899-4.44c0-1.76,0.339-3.399,1.02-4.92
			c0.68-1.52,1.609-2.88,2.79-4.08c1.18-1.2,2.54-2.209,4.08-3.03c1.539-0.819,3.149-1.39,4.83-1.71
			c-0.761-1.24-1.4-2.319-1.92-3.24c-0.521-0.919-0.881-1.62-1.08-2.1c-0.36-0.919-0.671-1.819-0.931-2.7
			c-0.26-0.879-0.39-1.82-0.39-2.82c0-1.52,0.31-2.899,0.93-4.14c0.62-1.24,1.44-2.29,2.46-3.15c1.021-0.86,2.21-1.53,3.57-2.01
			c1.359-0.48,2.76-0.72,4.2-0.72c1.76-0.039,3.339,0.21,4.74,0.75c1.399,0.54,2.539,1.11,3.42,1.71c0,0.04-0.11,0.19-0.33,0.45
			c-0.221,0.261-0.45,0.54-0.69,0.84c-0.239,0.3-0.471,0.57-0.689,0.81c-0.221,0.24-0.33,0.381-0.33,0.42
			c-0.72-0.44-1.511-0.83-2.37-1.17c-0.86-0.339-1.811-0.549-2.85-0.63c-1.041-0.04-2.07,0.07-3.091,0.33
			c-1.02,0.261-1.93,0.681-2.729,1.26c-0.801,0.581-1.45,1.311-1.95,2.19c-0.501,0.88-0.75,1.9-0.75,3.06
			c0,1.121,0.15,2.091,0.45,2.91c0.3,0.82,0.489,1.29,0.57,1.41l12.659,19.8l6.841-13.5h3.54l-8.4,16.5L489.855,51z M471.735,29.7
			c-1.32,0.04-2.64,0.32-3.96,0.84c-1.32,0.521-2.521,1.23-3.601,2.13c-1.079,0.9-1.96,1.98-2.64,3.24
			c-0.681,1.26-1.02,2.63-1.02,4.11c0,1.32,0.26,2.49,0.779,3.51s1.22,1.881,2.101,2.58c0.879,0.701,1.899,1.23,3.06,1.59
			c1.16,0.36,2.4,0.54,3.72,0.54c1,0,2.02-0.12,3.061-0.36c1.04-0.24,2.029-0.57,2.97-0.99c0.939-0.42,1.8-0.92,2.58-1.5
			c0.78-0.58,1.449-1.209,2.01-1.89c-1.439-2.12-2.96-4.389-4.56-6.81C474.635,34.27,473.135,31.94,471.735,29.7z"/>
		<path fill="#FFFFFF" d="M540.435,10.379l-1.92,3.3c-1.32-0.56-2.811-1.04-4.47-1.44c-1.661-0.399-3.291-0.6-4.891-0.6
			c-1.521,0-2.9,0.201-4.14,0.6c-1.24,0.4-2.301,0.94-3.181,1.62c-0.88,0.681-1.56,1.47-2.039,2.37
			c-0.48,0.9-0.721,1.851-0.721,2.85c0,1.4,0.489,2.53,1.471,3.39c0.979,0.86,2.199,1.63,3.659,2.31
			c1.46,0.681,3.04,1.331,4.74,1.95c1.7,0.621,3.279,1.401,4.74,2.34c1.46,0.94,2.68,2.1,3.66,3.48c0.979,1.38,1.47,3.15,1.47,5.31
			c0,2.04-0.381,3.9-1.14,5.58c-0.761,1.68-1.86,3.111-3.301,4.29c-1.439,1.18-3.189,2.1-5.25,2.76s-4.37,0.99-6.93,0.99
			c-1.68,0-3.21-0.15-4.59-0.451c-1.38-0.299-2.601-0.659-3.66-1.079c-1.061-0.42-1.96-0.85-2.7-1.29
			c-0.74-0.44-1.35-0.819-1.83-1.14l2.28-3.6c1.32,0.921,2.97,1.74,4.95,2.46c1.979,0.72,3.97,1.08,5.97,1.08
			c1.16,0,2.439-0.169,3.84-0.51c1.4-0.339,2.72-0.87,3.96-1.59c1.24-0.72,2.271-1.659,3.091-2.82c0.819-1.16,1.229-2.58,1.229-4.26
			c0-1.68-0.49-3.049-1.47-4.11c-0.98-1.059-2.211-1.97-3.69-2.73c-1.48-0.759-3.07-1.449-4.77-2.07
			c-1.701-0.62-3.291-1.33-4.771-2.13c-1.48-0.8-2.71-1.78-3.689-2.94c-0.98-1.16-1.471-2.64-1.471-4.44
			c0-1.56,0.34-3.049,1.021-4.47c0.68-1.419,1.65-2.69,2.91-3.81c1.26-1.12,2.77-2.01,4.529-2.67c1.76-0.66,3.721-0.99,5.881-0.99
			c1.119,0,2.259,0.09,3.42,0.27c1.159,0.18,2.25,0.4,3.27,0.66c1.021,0.261,1.93,0.531,2.73,0.81
			C539.435,9.94,540.034,10.18,540.435,10.379z"/>
		<path fill="#FFFFFF" d="M543.313,39c0.2-1.719,0.721-3.35,1.561-4.89c0.84-1.539,1.899-2.88,3.18-4.02
			c1.279-1.14,2.73-2.04,4.35-2.7c1.62-0.66,3.31-0.99,5.07-0.99c1.64,0,3.14,0.291,4.5,0.87c1.359,0.58,2.529,1.38,3.51,2.4
			s1.74,2.22,2.28,3.6s0.811,2.85,0.811,4.41c0,1.88-0.381,3.66-1.141,5.34s-1.79,3.15-3.09,4.41c-1.3,1.26-2.811,2.25-4.53,2.97
			c-1.72,0.72-3.54,1.081-5.46,1.081c-1.761,0-3.359-0.311-4.8-0.931c-1.439-0.62-2.66-1.489-3.66-2.61
			c-1-1.119-1.74-2.439-2.22-3.96C543.193,42.46,543.074,40.799,543.313,39z M546.614,39c-0.161,1.281-0.07,2.48,0.27,3.6
			c0.34,1.12,0.87,2.1,1.59,2.94s1.62,1.5,2.7,1.98s2.26,0.72,3.54,0.72c1.399,0,2.729-0.27,3.99-0.81
			c1.26-0.54,2.37-1.27,3.33-2.19c0.96-0.92,1.729-2,2.31-3.24c0.579-1.239,0.87-2.56,0.87-3.96c0-1.16-0.21-2.25-0.63-3.27
			s-0.99-1.899-1.71-2.64c-0.721-0.74-1.581-1.329-2.58-1.77c-1-0.439-2.101-0.66-3.3-0.66c-1.281,0-2.521,0.24-3.721,0.72
			c-1.199,0.48-2.26,1.14-3.18,1.98c-0.921,0.84-1.69,1.83-2.31,2.97C547.163,36.509,546.773,37.72,546.614,39z"/>
		<path fill="#FFFFFF" d="M594.014,51.299h-2.76l0.48-6.48c-1.08,2.001-2.561,3.621-4.44,4.86c-1.881,1.24-4.041,1.86-6.479,1.86
			c-2.361,0-4.15-0.66-5.37-1.98c-1.221-1.32-1.731-3.06-1.53-5.22l2.1-17.34h3.301l-1.98,16.2c-0.081,1.36,0.26,2.52,1.02,3.48
			s2.02,1.48,3.78,1.56c1.239,0,2.431-0.21,3.57-0.63s2.16-0.999,3.06-1.74c0.9-0.74,1.65-1.629,2.25-2.67
			c0.601-1.04,0.98-2.18,1.141-3.42l1.56-12.78h3.3L594.014,51.299z"/>
		<path fill="#FFFFFF" d="M604.993,27h2.82l-0.48,6.18c1.16-2,2.67-3.62,4.53-4.86c1.86-1.239,3.99-1.86,6.39-1.86
			c2.36,0,4.149,0.66,5.37,1.98c1.22,1.32,1.729,3.06,1.53,5.22l-2.1,17.34h-3.301l1.98-16.2c0.12-1.359-0.21-2.52-0.99-3.48
			s-2.05-1.479-3.81-1.56c-1.281,0-2.49,0.21-3.63,0.63c-1.141,0.42-2.16,1.01-3.061,1.77c-0.9,0.76-1.641,1.66-2.22,2.7
			c-0.58,1.041-0.951,2.181-1.11,3.42L605.354,51h-3.3L604.993,27z"/>
		<path fill="#FFFFFF" d="M630.553,40.379c0-1.959,0.38-3.789,1.141-5.49c0.759-1.7,1.779-3.17,3.06-4.41
			c1.28-1.239,2.76-2.22,4.44-2.94c1.68-0.72,3.459-1.08,5.34-1.08c1.239,0,2.359,0.16,3.359,0.48c1,0.321,1.88,0.741,2.641,1.26
			c0.759,0.52,1.39,1.12,1.89,1.8c0.5,0.681,0.87,1.36,1.11,2.04l3.3-27h3.3L654.493,51h-3.3l0.3-2.46
			c0.079-0.44,0.159-0.87,0.24-1.29c0.079-0.42,0.14-0.83,0.18-1.23c-1,1.48-2.4,2.76-4.2,3.84s-3.899,1.621-6.3,1.621
			c-1.68,0-3.19-0.291-4.53-0.871c-1.341-0.579-2.48-1.37-3.42-2.37c-0.94-1-1.66-2.169-2.16-3.51
			C630.803,43.39,630.553,41.939,630.553,40.379z M633.854,39.959c0,1.161,0.199,2.25,0.6,3.27c0.399,1.02,0.97,1.9,1.71,2.64
			c0.739,0.741,1.62,1.32,2.64,1.74c1.021,0.42,2.15,0.63,3.391,0.63c1.439,0,2.799-0.27,4.08-0.81
			c1.279-0.54,2.399-1.27,3.359-2.19c0.96-0.92,1.72-2,2.28-3.24c0.56-1.239,0.84-2.58,0.84-4.02c0-1.16-0.2-2.25-0.6-3.27
			c-0.4-1.02-0.971-1.899-1.71-2.64c-0.741-0.74-1.62-1.32-2.641-1.74c-1.02-0.42-2.13-0.63-3.33-0.63
			c-1.439,0-2.811,0.26-4.109,0.78c-1.301,0.521-2.431,1.25-3.391,2.19c-0.96,0.94-1.72,2.031-2.279,3.27
			C634.133,37.18,633.854,38.52,633.854,39.959z"/>
		<path fill="#FFFFFF" d="M684.672,8.16h9.96c3.879,0,7.17,0.57,9.87,1.71c2.699,1.14,4.879,2.62,6.54,4.44
			c1.659,1.821,2.859,3.891,3.6,6.21c0.739,2.32,1.11,4.641,1.11,6.96c0,3.561-0.681,6.791-2.04,9.69
			c-1.36,2.901-3.161,5.37-5.4,7.41c-2.24,2.04-4.82,3.621-7.74,4.74c-2.92,1.121-5.96,1.68-9.12,1.68h-12.06L684.672,8.16z
			 M691.512,47.1c2.72,0,5.3-0.45,7.74-1.35c2.438-0.9,4.579-2.19,6.42-3.87c1.839-1.68,3.3-3.72,4.38-6.12
			c1.08-2.4,1.62-5.1,1.62-8.1c0-2.2-0.371-4.25-1.11-6.15c-0.74-1.899-1.811-3.549-3.21-4.95c-1.4-1.4-3.101-2.49-5.1-3.27
			c-2.001-0.78-4.281-1.17-6.841-1.17h-7.08l-4.319,34.98H691.512z"/>
		<path fill="#FFFFFF" d="M739.332,48.12c-1.281,1.041-2.74,1.86-4.38,2.46c-1.641,0.6-3.301,0.9-4.98,0.9
			c-1.641,0-3.141-0.291-4.5-0.871c-1.36-0.579-2.54-1.38-3.54-2.4s-1.78-2.209-2.34-3.57c-0.561-1.359-0.84-2.82-0.84-4.38
			c0-1.879,0.39-3.66,1.17-5.34c0.78-1.68,1.83-3.15,3.15-4.41c1.319-1.26,2.829-2.259,4.529-3c1.7-0.739,3.47-1.11,5.311-1.11
			c2.64,0,4.839,0.791,6.6,2.37c1.76,1.581,2.94,3.63,3.54,6.15c-1.4,0.521-2.97,1.11-4.71,1.77s-3.53,1.341-5.37,2.04
			c-1.84,0.7-3.66,1.401-5.46,2.1c-1.8,0.7-3.479,1.35-5.04,1.95c0.52,1.641,1.47,2.961,2.851,3.96c1.38,1,3.029,1.5,4.949,1.5
			c1.28,0,2.521-0.22,3.721-0.66c1.199-0.44,2.259-1.04,3.18-1.8L739.332,48.12z M739.032,34.08c-0.521-1.359-1.351-2.43-2.49-3.21
			c-1.141-0.78-2.471-1.17-3.99-1.17c-1.4,0-2.729,0.27-3.99,0.81c-1.26,0.54-2.37,1.281-3.33,2.22c-0.96,0.94-1.72,2.01-2.279,3.21
			c-0.561,1.2-0.84,2.46-0.84,3.78v0.84c1.319-0.52,2.709-1.06,4.17-1.62c1.459-0.56,2.93-1.129,4.409-1.71
			c1.479-0.58,2.94-1.14,4.381-1.68C736.512,35.009,737.832,34.52,739.032,34.08z"/>
		<path fill="#FFFFFF" d="M761.712,29.279l-2.04,2.34c-0.32-0.44-0.921-0.85-1.8-1.23c-0.88-0.38-1.8-0.57-2.76-0.57
			c-0.44,0-0.91,0.06-1.41,0.18c-0.501,0.12-0.971,0.33-1.41,0.63c-0.44,0.3-0.801,0.681-1.08,1.14c-0.28,0.46-0.42,1.03-0.42,1.71
			c0,0.801,0.249,1.45,0.75,1.95c0.5,0.5,1.119,0.93,1.86,1.29c0.739,0.36,1.539,0.72,2.399,1.08c0.86,0.36,1.66,0.78,2.4,1.26
			c0.739,0.48,1.359,1.08,1.86,1.8c0.499,0.72,0.75,1.641,0.75,2.76c0,1.08-0.201,2.09-0.601,3.03c-0.4,0.94-0.98,1.77-1.74,2.49
			c-0.76,0.72-1.68,1.29-2.76,1.71c-1.08,0.419-2.301,0.63-3.66,0.63c-1.36,0-2.721-0.24-4.08-0.721
			c-1.36-0.48-2.42-1.239-3.18-2.28c0.2-0.159,0.43-0.38,0.69-0.66c0.26-0.279,0.51-0.54,0.75-0.78c0.239-0.24,0.439-0.45,0.6-0.63
			c0.159-0.18,0.26-0.27,0.3-0.27c0.12,0.201,0.35,0.42,0.69,0.66c0.339,0.24,0.759,0.471,1.26,0.69c0.5,0.22,1.04,0.41,1.62,0.57
			c0.579,0.16,1.149,0.24,1.71,0.24c0.52,0,1.08-0.08,1.68-0.24c0.601-0.16,1.149-0.41,1.65-0.75c0.5-0.339,0.92-0.78,1.26-1.32
			c0.34-0.54,0.51-1.17,0.51-1.89c0-0.8-0.25-1.45-0.75-1.95c-0.5-0.5-1.13-0.93-1.89-1.29c-0.761-0.36-1.57-0.709-2.43-1.05
			c-0.861-0.339-1.671-0.75-2.431-1.23s-1.39-1.08-1.89-1.8c-0.501-0.72-0.75-1.659-0.75-2.82c0-1.32,0.26-2.45,0.78-3.39
			c0.52-0.939,1.17-1.7,1.95-2.28c0.779-0.58,1.64-1.01,2.579-1.29c0.939-0.279,1.851-0.42,2.73-0.42c1.04,0,2.149,0.22,3.33,0.66
			C759.922,27.68,760.911,28.36,761.712,29.279z"/>
		<path fill="#FFFFFF" d="M769.512,51h-3.3l2.939-24h3.3L769.512,51z M769.512,18.54c0-0.759,0.279-1.39,0.84-1.89
			c0.56-0.5,1.18-0.75,1.86-0.75c0.56,0,1.039,0.201,1.439,0.6c0.399,0.4,0.6,0.92,0.6,1.56c0,0.801-0.27,1.44-0.81,1.92
			s-1.15,0.72-1.83,0.72c-0.561,0-1.05-0.189-1.47-0.57C769.722,19.75,769.512,19.22,769.512,18.54z"/>
		<path fill="#FFFFFF" d="M777.251,40.379c0-1.959,0.38-3.78,1.141-5.46c0.759-1.68,1.779-3.15,3.06-4.41
			c1.28-1.26,2.76-2.25,4.44-2.97c1.68-0.72,3.439-1.08,5.279-1.08c1.32,0,2.5,0.18,3.54,0.54s1.94,0.81,2.7,1.35
			s1.38,1.13,1.86,1.77c0.479,0.64,0.8,1.26,0.96,1.86c0.079-0.8,0.21-1.62,0.39-2.46c0.181-0.84,0.33-1.68,0.45-2.52h3.06
			l-2.88,23.58c-0.2,1.719-0.65,3.309-1.35,4.77c-0.7,1.46-1.641,2.721-2.82,3.78s-2.609,1.89-4.29,2.49
			c-1.68,0.601-3.6,0.899-5.76,0.899c-2.28,0-4.21-0.42-5.79-1.26s-3.15-2.08-4.71-3.72l2.4-2.28c1.399,1.52,2.769,2.58,4.109,3.18
			c1.34,0.601,2.77,0.9,4.29,0.9c3.36,0,5.859-0.79,7.5-2.369c1.64-1.582,2.641-3.651,3-6.211c0.08-0.319,0.13-0.6,0.15-0.84
			c0.02-0.24,0.09-0.699,0.21-1.38c0-0.12,0.03-0.31,0.09-0.57c0.06-0.26,0.109-0.54,0.15-0.84c0.039-0.3,0.09-0.579,0.149-0.84
			c0.061-0.26,0.09-0.429,0.09-0.51c-0.92,1.521-2.29,2.85-4.109,3.99c-1.821,1.14-3.951,1.71-6.391,1.71
			c-1.641,0-3.13-0.281-4.47-0.84c-1.341-0.56-2.49-1.34-3.45-2.34c-0.96-0.999-1.7-2.18-2.22-3.54
			C777.511,43.4,777.251,41.939,777.251,40.379z M780.552,39.959c0,1.161,0.199,2.25,0.6,3.27c0.399,1.02,0.97,1.9,1.71,2.64
			c0.739,0.741,1.62,1.32,2.64,1.74c1.021,0.42,2.15,0.63,3.391,0.63c1.439,0,2.799-0.27,4.08-0.81
			c1.279-0.54,2.399-1.27,3.359-2.19c0.96-0.92,1.72-2,2.28-3.24c0.56-1.239,0.84-2.58,0.84-4.02c0-1.16-0.2-2.25-0.6-3.27
			c-0.4-1.02-0.971-1.899-1.71-2.64c-0.741-0.74-1.62-1.32-2.641-1.74c-1.02-0.42-2.13-0.63-3.33-0.63
			c-1.439,0-2.811,0.26-4.109,0.78c-1.301,0.521-2.431,1.25-3.391,2.19c-0.96,0.94-1.72,2.031-2.279,3.27
			C780.831,37.18,780.552,38.52,780.552,39.959z"/>
		<path fill="#FFFFFF" d="M812.171,27h2.82l-0.48,6.18c1.16-2,2.67-3.62,4.53-4.86c1.86-1.239,3.99-1.86,6.39-1.86
			c2.36,0,4.149,0.66,5.37,1.98c1.22,1.32,1.729,3.06,1.53,5.22l-2.1,17.34h-3.301l1.98-16.2c0.12-1.359-0.21-2.52-0.99-3.48
			s-2.05-1.479-3.81-1.56c-1.281,0-2.49,0.21-3.63,0.63c-1.141,0.42-2.16,1.01-3.061,1.77c-0.9,0.76-1.641,1.66-2.22,2.7
			c-0.58,1.041-0.951,2.181-1.11,3.42L812.531,51h-3.3L812.171,27z"/>
		<path fill="#FFFFFF" d="M858.251,48.12c-1.281,1.041-2.74,1.86-4.38,2.46c-1.641,0.6-3.301,0.9-4.98,0.9
			c-1.641,0-3.141-0.291-4.5-0.871c-1.36-0.579-2.54-1.38-3.54-2.4s-1.78-2.209-2.34-3.57c-0.561-1.359-0.84-2.82-0.84-4.38
			c0-1.879,0.39-3.66,1.17-5.34c0.78-1.68,1.83-3.15,3.15-4.41c1.319-1.26,2.829-2.259,4.529-3c1.7-0.739,3.47-1.11,5.311-1.11
			c2.64,0,4.839,0.791,6.6,2.37c1.76,1.581,2.94,3.63,3.54,6.15c-1.4,0.521-2.97,1.11-4.71,1.77s-3.53,1.341-5.37,2.04
			c-1.84,0.7-3.66,1.401-5.46,2.1c-1.8,0.7-3.479,1.35-5.04,1.95c0.52,1.641,1.47,2.961,2.851,3.96c1.38,1,3.029,1.5,4.949,1.5
			c1.28,0,2.521-0.22,3.721-0.66c1.199-0.44,2.259-1.04,3.18-1.8L858.251,48.12z M857.951,34.08c-0.521-1.359-1.351-2.43-2.49-3.21
			c-1.141-0.78-2.471-1.17-3.99-1.17c-1.4,0-2.729,0.27-3.99,0.81c-1.26,0.54-2.37,1.281-3.33,2.22c-0.96,0.94-1.72,2.01-2.279,3.21
			c-0.561,1.2-0.84,2.46-0.84,3.78v0.84c1.319-0.52,2.709-1.06,4.17-1.62c1.459-0.56,2.93-1.129,4.409-1.71
			c1.479-0.58,2.94-1.14,4.381-1.68C855.431,35.009,856.751,34.52,857.951,34.08z"/>
		<path fill="#FFFFFF" d="M880.211,30.6c-1.2,0-2.37,0.19-3.51,0.57c-1.141,0.381-2.171,0.91-3.09,1.59
			c-0.921,0.681-1.69,1.511-2.311,2.49c-0.62,0.98-1.011,2.07-1.17,3.27L868.571,51h-3.3l2.939-24h2.82l-0.48,6.18
			c0.601-1.04,1.34-1.97,2.221-2.79c0.879-0.819,1.809-1.52,2.789-2.1c0.98-0.58,1.97-1.029,2.971-1.35
			c0.999-0.32,1.939-0.48,2.819-0.48L880.211,30.6z"/>
	</g>
</g>
</svg>
