<?xml version="1.0" encoding="utf-8"?>
<!-- Generator: Adobe Illustrator 24.0.0, SVG Export Plug-In . SVG Version: 6.00 Build 0)  -->
<svg version="1.1" id="Layer_1" xmlns="http://www.w3.org/2000/svg" xmlns:xlink="http://www.w3.org/1999/xlink" x="0px" y="0px"
	 viewBox="0 0 340.796 66.419" enable-background="new 0 0 340.796 66.419" xml:space="preserve">
<g>
	<path fill="#FFFFFF" d="M5.34,51V7.5h11.88c2.28,0,4.37,0.3,6.27,0.9c1.899,0.6,3.54,1.491,4.92,2.67
		c1.38,1.181,2.45,2.621,3.21,4.32c0.759,1.701,1.14,3.65,1.14,5.85c0,1.72-0.26,3.43-0.78,5.13c-0.521,1.701-1.36,3.22-2.52,4.56
		c-1.161,1.34-2.68,2.43-4.56,3.27c-1.88,0.84-4.161,1.26-6.84,1.26h-6.12V51H5.34z M11.94,29.279h5.94c1.6,0,2.94-0.279,4.02-0.84
		c1.08-0.56,1.93-1.239,2.55-2.04c0.62-0.8,1.059-1.659,1.32-2.58c0.26-0.919,0.39-1.74,0.39-2.46c0-0.759-0.13-1.59-0.39-2.49
		c-0.261-0.9-0.71-1.74-1.35-2.52c-0.64-0.78-1.491-1.43-2.55-1.95c-1.061-0.519-2.37-0.78-3.93-0.78h-6V29.279z"/>
	<path fill="#FFFFFF" d="M33.241,38.7c0-1.839,0.35-3.57,1.05-5.19c0.699-1.62,1.65-3.039,2.85-4.26c1.2-1.22,2.59-2.19,4.17-2.91
		c1.58-0.72,3.27-1.08,5.07-1.08c1.2,0,2.3,0.15,3.3,0.45c1,0.3,1.86,0.67,2.58,1.11c0.72,0.441,1.299,0.9,1.74,1.38
		c0.439,0.48,0.74,0.9,0.9,1.26l0.24-3.54h4.92V51h-5.16v-3.18c-0.201,0.321-0.521,0.701-0.96,1.14
		c-0.441,0.44-1.011,0.851-1.71,1.23c-0.7,0.381-1.53,0.71-2.49,0.99c-0.96,0.279-2.061,0.42-3.3,0.42c-1.92,0-3.69-0.351-5.31-1.05
		c-1.62-0.699-3.01-1.64-4.17-2.82c-1.161-1.179-2.07-2.55-2.73-4.11C33.571,42.06,33.241,40.42,33.241,38.7z M38.401,38.399
		c0,1.161,0.21,2.241,0.63,3.24c0.42,1,0.99,1.86,1.71,2.58c0.72,0.72,1.58,1.29,2.58,1.71c1,0.42,2.1,0.63,3.3,0.63
		c1.2,0,2.31-0.21,3.33-0.63c1.02-0.42,1.899-1,2.64-1.74c0.74-0.74,1.31-1.599,1.71-2.58c0.399-0.979,0.6-2.049,0.6-3.21
		c0-1.16-0.201-2.229-0.6-3.21c-0.4-0.979-0.97-1.83-1.71-2.55c-0.741-0.72-1.62-1.29-2.64-1.71c-1.02-0.42-2.13-0.63-3.33-0.63
		c-1.2,0-2.301,0.21-3.3,0.63c-1,0.42-1.86,0.99-2.58,1.71c-0.72,0.72-1.29,1.57-1.71,2.55C38.611,36.17,38.401,37.24,38.401,38.399
		z"/>
	<path fill="#FFFFFF" d="M90.6,51.54h-4.32l-0.6-6.96c-0.92,2.04-2.21,3.72-3.87,5.04c-1.66,1.32-3.771,1.98-6.33,1.98
		c-2.56,0-4.59-0.69-6.09-2.07c-1.5-1.38-2.291-3.189-2.37-5.43v-18.18h5.1v15.9c0.08,1.241,0.53,2.301,1.35,3.18
		c0.819,0.88,2.09,1.38,3.81,1.5c1.2,0,2.3-0.21,3.3-0.63c1-0.42,1.86-0.99,2.58-1.71c0.72-0.72,1.28-1.58,1.68-2.58
		c0.399-1,0.6-2.1,0.6-3.3v-12.36h5.16V51.54z"/>
	<path fill="#FFFFFF" d="M102.959,51h-5.1V4.379h5.1V51z"/>
	<path fill="#FFFFFF" d="M108.479,38.7c0-1.839,0.35-3.57,1.05-5.19c0.699-1.62,1.65-3.039,2.85-4.26c1.2-1.22,2.59-2.19,4.17-2.91
		c1.58-0.72,3.27-1.08,5.07-1.08c1.2,0,2.3,0.15,3.3,0.45c1,0.3,1.86,0.67,2.58,1.11c0.72,0.441,1.299,0.9,1.74,1.38
		c0.439,0.48,0.74,0.9,0.9,1.26l0.24-3.54h4.92V51h-5.16v-3.18c-0.201,0.321-0.521,0.701-0.96,1.14
		c-0.441,0.44-1.011,0.851-1.71,1.23c-0.7,0.381-1.53,0.71-2.49,0.99c-0.96,0.279-2.061,0.42-3.3,0.42c-1.92,0-3.69-0.351-5.31-1.05
		c-1.62-0.699-3.01-1.64-4.17-2.82c-1.161-1.179-2.07-2.55-2.73-4.11C108.809,42.06,108.479,40.42,108.479,38.7z M113.639,38.399
		c0,1.161,0.21,2.241,0.63,3.24c0.42,1,0.99,1.86,1.71,2.58c0.72,0.72,1.58,1.29,2.58,1.71c1,0.42,2.1,0.63,3.3,0.63
		c1.2,0,2.31-0.21,3.33-0.63c1.02-0.42,1.899-1,2.64-1.74c0.74-0.74,1.31-1.599,1.71-2.58c0.399-0.979,0.6-2.049,0.6-3.21
		c0-1.16-0.201-2.229-0.6-3.21c-0.4-0.979-0.97-1.83-1.71-2.55c-0.741-0.72-1.62-1.29-2.64-1.71c-1.02-0.42-2.13-0.63-3.33-0.63
		c-1.2,0-2.301,0.21-3.3,0.63c-1,0.42-1.86,0.99-2.58,1.71c-0.72,0.72-1.29,1.57-1.71,2.55
		C113.849,36.17,113.639,37.24,113.639,38.399z"/>
	<path fill="#FFFFFF" d="M190.318,47.879c-0.48,0.36-1.15,0.75-2.01,1.17c-0.861,0.42-1.871,0.81-3.03,1.17
		c-1.161,0.36-2.451,0.66-3.87,0.9c-1.42,0.24-2.931,0.36-4.53,0.36c-3.4,0-6.449-0.59-9.15-1.77c-2.7-1.179-4.99-2.77-6.87-4.77
		c-1.881-2-3.321-4.32-4.32-6.96c-1-2.64-1.5-5.439-1.5-8.4c0-3.279,0.59-6.3,1.77-9.06c1.18-2.76,2.79-5.139,4.83-7.14
		c2.04-2,4.43-3.56,7.17-4.68c2.739-1.12,5.649-1.68,8.729-1.68c1.16,0,2.34,0.081,3.54,0.24c1.2,0.161,2.33,0.381,3.39,0.66
		c1.06,0.28,2,0.61,2.82,0.99c0.819,0.38,1.449,0.771,1.891,1.17c-0.321,0.48-0.57,0.88-0.75,1.2
		c-0.181,0.321-0.371,0.651-0.57,0.99c-0.201,0.34-0.42,0.73-0.66,1.17c-0.24,0.441-0.561,1.02-0.96,1.74
		c-0.521-0.36-1.131-0.66-1.83-0.9c-0.7-0.24-1.431-0.439-2.19-0.6c-0.76-0.16-1.529-0.28-2.31-0.36c-0.78-0.08-1.49-0.12-2.13-0.12
		c-2.32,0-4.47,0.43-6.45,1.29c-1.979,0.86-3.69,2.02-5.13,3.48c-1.44,1.46-2.571,3.15-3.39,5.07c-0.82,1.92-1.23,3.92-1.23,6
		c0,2.04,0.39,4,1.17,5.88c0.78,1.881,1.86,3.561,3.24,5.04c1.38,1.48,3.039,2.661,4.979,3.54c1.94,0.88,4.07,1.32,6.391,1.32
		c1.239,0,2.439-0.12,3.6-0.36c1.16-0.24,2.21-0.52,3.15-0.84c0.939-0.32,1.719-0.64,2.34-0.96c0.62-0.32,0.99-0.56,1.11-0.72
		L190.318,47.879z"/>
	<path fill="#FFFFFF" d="M192.179,38.7c0-1.839,0.35-3.57,1.05-5.19c0.699-1.62,1.649-3.039,2.85-4.26c1.2-1.22,2.59-2.19,4.17-2.91
		c1.58-0.72,3.271-1.08,5.07-1.08c1.2,0,2.3,0.15,3.3,0.45s1.86,0.67,2.58,1.11c0.72,0.441,1.3,0.9,1.74,1.38
		c0.439,0.48,0.739,0.9,0.899,1.26l0.24-3.54h4.92V51h-5.16v-3.18c-0.2,0.321-0.52,0.701-0.96,1.14c-0.44,0.44-1.01,0.851-1.71,1.23
		c-0.7,0.381-1.529,0.71-2.489,0.99c-0.96,0.279-2.061,0.42-3.301,0.42c-1.92,0-3.689-0.351-5.31-1.05
		c-1.62-0.699-3.011-1.64-4.17-2.82c-1.161-1.179-2.07-2.55-2.73-4.11C192.509,42.06,192.179,40.42,192.179,38.7z M197.338,38.399
		c0,1.161,0.211,2.241,0.631,3.24c0.42,1,0.989,1.86,1.71,2.58c0.72,0.72,1.579,1.29,2.58,1.71c0.999,0.42,2.1,0.63,3.3,0.63
		s2.31-0.21,3.33-0.63c1.02-0.42,1.899-1,2.64-1.74c0.739-0.74,1.31-1.599,1.71-2.58c0.399-0.979,0.6-2.049,0.6-3.21
		c0-1.16-0.2-2.229-0.6-3.21c-0.4-0.979-0.971-1.83-1.71-2.55c-0.74-0.72-1.62-1.29-2.64-1.71c-1.021-0.42-2.13-0.63-3.33-0.63
		s-2.301,0.21-3.3,0.63c-1.001,0.42-1.86,0.99-2.58,1.71c-0.721,0.72-1.29,1.57-1.71,2.55
		C197.549,36.17,197.338,37.24,197.338,38.399z M203.099,21.839c0.919-1.32,1.839-2.66,2.76-4.02c0.92-1.359,1.839-2.7,2.76-4.02
		h5.521l-7.141,8.04H203.099z"/>
	<path fill="#FFFFFF" d="M242.998,44.819c0.56,0.681,1.089,1.331,1.59,1.95c0.499,0.621,1.01,1.271,1.529,1.95
		c-1.12,0.88-2.38,1.581-3.779,2.1c-1.4,0.52-2.921,0.78-4.561,0.78c-1.84,0-3.569-0.351-5.189-1.05
		c-1.62-0.699-3.03-1.65-4.23-2.85c-1.2-1.2-2.15-2.6-2.85-4.2c-0.7-1.6-1.05-3.3-1.05-5.1c0-1.8,0.35-3.5,1.05-5.1
		c0.699-1.599,1.649-2.989,2.85-4.17c1.2-1.179,2.61-2.12,4.23-2.82c1.62-0.699,3.35-1.05,5.189-1.05c1.681,0,3.23,0.261,4.65,0.78
		c1.419,0.521,2.709,1.221,3.87,2.1l-3.3,3.9c-0.681-0.56-1.461-0.99-2.341-1.29s-1.84-0.45-2.88-0.45c-1.199,0-2.301,0.21-3.3,0.63
		c-1,0.42-1.87,0.99-2.61,1.71c-0.74,0.72-1.311,1.57-1.71,2.55c-0.399,0.98-0.6,2.05-0.6,3.21c0,1.161,0.2,2.23,0.6,3.21
		c0.399,0.981,0.97,1.84,1.71,2.58c0.74,0.741,1.61,1.32,2.61,1.74c0.999,0.42,2.101,0.63,3.3,0.63c1.04,0,2-0.15,2.88-0.45
		C241.537,45.81,242.317,45.38,242.998,44.819z"/>
	<path fill="#FFFFFF" d="M271.497,48.06c-1.2,1.08-2.66,1.94-4.38,2.58c-1.721,0.639-3.479,0.96-5.28,0.96
		c-1.84,0-3.569-0.351-5.189-1.05c-1.62-0.699-3.03-1.64-4.23-2.82c-1.2-1.179-2.15-2.57-2.85-4.17c-0.7-1.6-1.05-3.3-1.05-5.1
		s0.35-3.5,1.05-5.1c0.699-1.599,1.649-3,2.85-4.2c1.2-1.2,2.59-2.15,4.17-2.85c1.58-0.699,3.271-1.05,5.07-1.05
		c2.84,0,5.31,0.851,7.41,2.55c2.1,1.701,3.609,3.93,4.53,6.69c-1.241,0.44-2.661,0.98-4.261,1.62c-1.6,0.64-3.261,1.311-4.979,2.01
		c-1.721,0.7-3.44,1.391-5.16,2.07c-1.721,0.681-3.32,1.3-4.8,1.86c0.68,1.36,1.67,2.451,2.97,3.27c1.3,0.82,2.75,1.23,4.35,1.23
		c1.08,0,2.17-0.2,3.271-0.6c1.1-0.399,1.989-0.939,2.67-1.62L271.497,48.06z M267.177,33.299c-0.479-0.999-1.24-1.749-2.279-2.25
		c-1.041-0.5-2.101-0.75-3.181-0.75c-1.16,0-2.229,0.221-3.21,0.66c-0.98,0.44-1.83,1.03-2.55,1.77c-0.72,0.741-1.29,1.59-1.71,2.55
		c-0.42,0.96-0.63,1.941-0.63,2.94c0,0.2,0.01,0.34,0.03,0.42c0.02,0.081,0.029,0.141,0.029,0.18c1.04-0.399,2.17-0.849,3.391-1.35
		c1.22-0.5,2.43-1,3.63-1.5c1.2-0.5,2.359-0.98,3.479-1.44C265.297,34.07,266.297,33.66,267.177,33.299z"/>
	<path fill="#FFFFFF" d="M291.837,31.859c-1.121,0-2.201,0.15-3.24,0.45c-1.041,0.3-1.971,0.75-2.79,1.35
		c-0.82,0.6-1.47,1.35-1.95,2.25c-0.479,0.9-0.72,1.93-0.72,3.09v12h-5.101v-25.08h4.5c0.08,1.24,0.15,2.37,0.21,3.39
		c0.061,1.02,0.13,2.031,0.21,3.03c0.52-1.08,1.2-2.06,2.04-2.94c0.841-0.879,1.74-1.62,2.7-2.22c0.96-0.6,1.899-1.07,2.82-1.41
		c0.92-0.339,1.74-0.51,2.46-0.51L291.837,31.859z"/>
	<path fill="#FFFFFF" d="M317.456,48.06c-1.2,1.08-2.66,1.94-4.38,2.58c-1.721,0.639-3.479,0.96-5.28,0.96
		c-1.84,0-3.569-0.351-5.189-1.05c-1.62-0.699-3.03-1.64-4.23-2.82c-1.2-1.179-2.15-2.57-2.85-4.17c-0.7-1.6-1.05-3.3-1.05-5.1
		s0.35-3.5,1.05-5.1c0.699-1.599,1.649-3,2.85-4.2c1.2-1.2,2.59-2.15,4.17-2.85c1.58-0.699,3.271-1.05,5.07-1.05
		c2.84,0,5.31,0.851,7.41,2.55c2.1,1.701,3.609,3.93,4.53,6.69c-1.241,0.44-2.661,0.98-4.261,1.62c-1.6,0.64-3.261,1.311-4.979,2.01
		c-1.721,0.7-3.44,1.391-5.16,2.07c-1.721,0.681-3.32,1.3-4.8,1.86c0.68,1.36,1.67,2.451,2.97,3.27c1.3,0.82,2.75,1.23,4.35,1.23
		c1.08,0,2.17-0.2,3.271-0.6c1.1-0.399,1.989-0.939,2.67-1.62L317.456,48.06z M313.136,33.299c-0.479-0.999-1.24-1.749-2.279-2.25
		c-1.041-0.5-2.101-0.75-3.181-0.75c-1.16,0-2.229,0.221-3.21,0.66c-0.98,0.44-1.83,1.03-2.55,1.77c-0.72,0.741-1.29,1.59-1.71,2.55
		c-0.42,0.96-0.63,1.941-0.63,2.94c0,0.2,0.01,0.34,0.03,0.42c0.02,0.081,0.029,0.141,0.029,0.18c1.04-0.399,2.17-0.849,3.391-1.35
		c1.22-0.5,2.43-1,3.63-1.5c1.2-0.5,2.359-0.98,3.479-1.44C311.256,34.07,312.256,33.66,313.136,33.299z"/>
	<path fill="#FFFFFF" d="M337.977,28.14l-2.7,3.6c-0.04-0.04-0.18-0.14-0.42-0.3c-0.24-0.159-0.55-0.32-0.93-0.48
		c-0.381-0.159-0.82-0.31-1.32-0.45c-0.501-0.14-1.011-0.21-1.53-0.21c-0.681,0-1.35,0.161-2.01,0.48
		c-0.66,0.321-0.99,0.921-0.99,1.8c0,0.76,0.271,1.38,0.811,1.86s1.209,0.91,2.01,1.29c0.8,0.381,1.67,0.771,2.61,1.17
		c0.939,0.4,1.809,0.891,2.609,1.47c0.8,0.58,1.471,1.3,2.011,2.16c0.539,0.861,0.81,1.95,0.81,3.27c0,2.241-0.771,4.09-2.31,5.55
		c-1.541,1.46-3.651,2.19-6.33,2.19c-1.561,0-3.091-0.27-4.591-0.81s-2.71-1.33-3.63-2.37c0.279-0.279,0.59-0.639,0.931-1.08
		c0.339-0.439,0.68-0.859,1.02-1.26c0.34-0.399,0.62-0.729,0.84-0.99c0.22-0.259,0.35-0.39,0.391-0.39c0,0.04,0.149,0.16,0.449,0.36
		c0.301,0.201,0.69,0.411,1.171,0.63c0.479,0.22,1.02,0.42,1.619,0.6c0.601,0.18,1.2,0.27,1.801,0.27c0.96,0,1.779-0.24,2.46-0.72
		c0.68-0.48,1.02-1.119,1.02-1.92c0-0.72-0.27-1.29-0.81-1.71s-1.211-0.81-2.011-1.17s-1.68-0.729-2.64-1.11
		c-0.96-0.38-1.84-0.87-2.64-1.47c-0.801-0.6-1.471-1.35-2.011-2.25c-0.539-0.9-0.81-2.07-0.81-3.51c0-1.359,0.249-2.5,0.75-3.42
		c0.5-0.92,1.14-1.67,1.92-2.25c0.78-0.58,1.65-1,2.61-1.26c0.96-0.26,1.88-0.39,2.76-0.39c1.16,0,2.4,0.24,3.72,0.72
		C335.937,26.52,337.056,27.22,337.977,28.14z"/>
</g>
</svg>
